<?xml version="1.0" encoding="UTF-8" standalone="no"?>
<!DOCTYPE svg PUBLIC "-//W3C//DTD SVG 1.1//EN" "http://www.w3.org/Graphics/SVG/1.1/DTD/svg11.dtd">
<svg version="1.1" xmlns="http://www.w3.org/2000/svg" xmlns:xlink="http://www.w3.org/1999/xlink" preserveAspectRatio="xMidYMid meet" viewBox="0 0 640 640" width="3000" height="3000"><defs><path d="M20 20L620 20L620 620L20 620L20 20Z" id="a1sNKMlDxF"></path><mask id="maskb1mL8Xvi5b" x="0" y="0" width="640" height="640" maskUnits="userSpaceOnUse"><rect x="0" y="0" width="640" height="640" fill="white"></rect><use xlink:href="#a1sNKMlDxF" opacity="1" fill="black"></use></mask><path d="M200 60L442.27 60L442.27 580L200 580L200 60Z" id="aTgh7Bj9H"></path><path d="M60 200L580 200L580 440L60 440L60 200Z" id="gd1rIOlSi"></path><path d="M255 370L280 420L230 420L180 420L205 370L230 320L255 370Z" id="b3j8hehc3F"></path><path d="M355 300L400 420L310 420L220 420L265 300L310 180L355 300Z" id="b23S0MW7ll"></path><path d="M425 350L460 420L390 420L320 420L355 350L390 280L425 350Z" id="d2DFYwlQC"></path></defs><g><g><g><use xlink:href="#a1sNKMlDxF" opacity="1" fill="#ffffff" fill-opacity="1"></use><g mask="url(#maskb1mL8Xvi5b)"><use xlink:href="#a1sNKMlDxF" opacity="1" fill-opacity="0" stroke="#ff0037" stroke-width="20" stroke-opacity="1"></use></g></g><g><use xlink:href="#aTgh7Bj9H" opacity="1" fill="#ed1b2e" fill-opacity="1"></use></g><g><use xlink:href="#gd1rIOlSi" opacity="1" fill="#ed1b2e" fill-opacity="1"></use></g><g><use xlink:href="#b3j8hehc3F" opacity="1" fill="#ffffff" fill-opacity="1"></use></g><g><use xlink:href="#b23S0MW7ll" opacity="1" fill="#ffffff" fill-opacity="1"></use></g><g><use xlink:href="#d2DFYwlQC" opacity="1" fill="#ffffff" fill-opacity="1"></use></g></g></g></svg>